<?xml version="1.0" standalone="no"?>
<!DOCTYPE svg PUBLIC "-//W3C//DTD SVG 20010904//EN"
 "http://www.w3.org/TR/2001/REC-SVG-20010904/DTD/svg10.dtd">
<svg version="1.0" xmlns="http://www.w3.org/2000/svg"
 width="512.000000pt" height="512.000000pt" viewBox="0 0 512.000000 512.000000"
 preserveAspectRatio="xMidYMid meet">

<g transform="translate(0.000000,512.000000) scale(0.100000,-0.100000)"
fill="#000000" stroke="none">
<path d="M0 2560 l0 -2560 2560 0 2560 0 0 2560 0 2560 -2560 0 -2560 0 0
-2560z m4309 1570 c39 -11 60 -35 61 -70 0 -59 -111 -240 -576 -940 -384 -577
-575 -891 -774 -1275 -98 -189 -137 -255 -168 -288 -50 -52 -75 -35 -177 120
-215 327 -393 521 -571 623 -40 23 -78 39 -84 35 -6 -3 17 -27 51 -52 98 -74
145 -154 119 -203 -10 -18 -240 -196 -365 -282 -50 -34 -90 -36 -107 -5 -19
32 -15 353 6 477 l16 95 -25 18 c-40 30 -48 52 -31 86 53 103 599 455 1236
799 36 19 99 54 140 77 41 23 111 61 155 85 321 173 637 358 630 370 -18 29
-695 -234 -1945 -754 -221 -92 -385 -155 -400 -154 -34 4 -39 42 -8 62 13 8
91 42 173 76 83 34 267 111 410 170 143 59 328 136 410 170 83 34 296 121 475
192 775 310 1004 381 1046 324 44 -60 -46 -128 -521 -393 -137 -77 -295 -163
-350 -193 -55 -29 -104 -56 -110 -60 -5 -4 -39 -23 -75 -42 -426 -228 -829
-474 -1082 -661 -109 -80 -132 -105 -80 -92 76 20 120 17 207 -13 237 -82 457
-288 712 -668 53 -79 100 -141 104 -138 5 3 28 42 52 87 357 667 424 778 999
1647 358 541 436 669 423 690 -3 6 -19 10 -34 10 -37 0 -353 -80 -661 -168
-543 -155 -808 -226 -1965 -525 -348 -91 -552 -145 -681 -183 -31 -9 -52 -19
-47 -24 4 -4 33 -15 63 -25 125 -40 334 -161 424 -244 83 -78 119 -179 196
-546 17 -82 45 -203 61 -268 17 -69 27 -128 23 -140 -4 -12 -34 -51 -68 -87
-33 -36 -115 -139 -181 -229 -285 -388 -422 -569 -488 -645 -271 -313 -494
-466 -677 -466 l-60 0 0 35 c0 34 1 35 38 35 133 1 285 85 466 260 151 146
311 340 506 615 124 175 235 321 313 412 l78 93 -30 122 c-16 68 -44 191 -61
273 -79 376 -104 441 -202 513 -131 95 -280 171 -419 212 -113 33 -147 57
-129 91 6 10 21 25 33 33 43 28 318 107 822 236 635 163 661 170 1120 292 187
50 459 124 605 165 490 137 735 203 810 218 41 8 84 16 95 18 34 8 39 7 74 -3z"/>
<path d="M1800 2278 c-6 -29 -14 -136 -17 -237 l-6 -184 59 42 c132 94 278
207 282 220 8 24 -111 126 -200 170 -46 22 -89 41 -95 41 -6 0 -16 -24 -23
-52z"/>
</g>
</svg>
